<svg width="1375" height="586" viewBox="0 0 1375 586" fill="none" xmlns="http://www.w3.org/2000/svg">
<g clip-path="url(#clip0_2_264)">
<path opacity="0.96" fill-rule="evenodd" clip-rule="evenodd" d="M652.5 -0.5C662.833 -0.5 673.167 -0.5 683.5 -0.5C684.531 0.248534 685.698 0.915201 687 1.5C691 8.83333 695 16.1667 699 23.5C700.487 25.9852 702.321 28.1518 704.5 30C708.796 30.3736 712.963 31.2069 717 32.5C725.433 26.0708 733.266 18.9041 740.5 11C742.067 9.92421 743.734 9.09087 745.5 8.5C755.726 11.2952 765.559 14.9619 775 19.5C776.677 29.8968 778.677 40.2301 781 50.5C785.933 55.3845 791.767 58.2179 798.5 59C807.602 53.8642 817.102 49.6975 827 46.5C836.308 50.66 844.641 56.3267 852 63.5C852.518 74.5378 851.351 85.3711 848.5 96C852.093 102.428 857.093 107.262 863.5 110.5C874.113 108.53 884.78 107.364 895.5 107C901.937 114.048 907.771 121.548 913 129.5C913.584 132.257 913.25 134.923 912 137.5C908.533 144.746 905.366 152.079 902.5 159.5C923.62 156.924 944.62 153.591 965.5 149.5C965.833 149.833 966.167 150.167 966.5 150.5C942.259 166.891 917.592 182.724 892.5 198C891.5 198.667 890.5 198.667 889.5 198C853.438 120.278 793.438 72.6117 709.5 55C611.485 42.7765 532.985 75.9432 474 154.5C472.991 156.025 472.491 157.692 472.5 159.5C474.308 159.509 475.975 159.009 477.5 158C496.948 133.55 519.281 112.217 544.5 94C609.116 55.9585 677.116 48.6252 748.5 72C801.253 92.4215 842.086 126.921 871 175.5C875.717 184.265 879.883 193.265 883.5 202.5C881.725 205.103 879.392 207.27 876.5 209C874.598 210.301 872.598 210.968 870.5 211C835.629 132.037 775.295 86.7041 689.5 75C611.516 70.3102 548.016 98.1435 499 158.5C498.5 217.166 498.333 275.832 498.5 334.5C333.126 362.618 167.793 390.951 2.5 419.5C1.80762 418.975 1.30762 418.308 1 417.5C0.830153 407.325 0.330153 397.325 -0.5 387.5C-0.5 338.5 -0.5 289.5 -0.5 240.5C145.519 215.441 291.519 190.275 437.5 165C438.554 163.612 438.72 162.112 438 160.5C433.939 151.378 429.606 142.378 425 133.5C424.333 132.5 424.333 131.5 425 130.5C430.946 121.619 437.612 113.286 445 105.5C455.102 107.301 465.269 108.968 475.5 110.5C483.172 107.174 487.839 101.507 489.5 93.5C488.185 83.8016 487.018 74.1349 486 64.5C493.82 57.1703 502.32 50.8369 511.5 45.5C521.402 49.4504 531.069 53.9504 540.5 59C547.233 58.2179 553.067 55.3845 558 50.5C560.36 39.8662 562.527 29.1995 564.5 18.5C573.874 14.375 583.541 11.0417 593.5 8.5C594.938 8.71893 596.271 9.21893 597.5 10C604.864 17.698 612.53 25.0313 620.5 32C625.098 31.3579 629.765 30.6913 634.5 30C636.105 28.6397 637.605 27.1397 639 25.5C643.768 16.9637 648.268 8.29706 652.5 -0.5ZM456.5 189.5C462.386 188.343 467.219 190.01 471 194.5C471.5 233.165 471.667 271.832 471.5 310.5C467.215 311.295 462.881 311.628 458.5 311.5C458.5 275.5 458.5 239.5 458.5 203.5C454.102 203.795 449.769 204.462 445.5 205.5C444.679 208.447 444.179 211.447 444 214.5C443.667 246.167 443.333 277.833 443 309.5C442.749 311.433 442.249 313.266 441.5 315C437.582 316.156 433.582 316.656 429.5 316.5C429.5 275.833 429.5 235.167 429.5 194.5C438.721 193.354 447.721 191.688 456.5 189.5ZM397.5 199.5C402.5 199.5 407.5 199.5 412.5 199.5C413.261 239.171 413.261 278.838 412.5 318.5C411.088 319.806 409.421 320.64 407.5 321C396.606 323.65 385.606 325.316 374.5 326C373.874 325.25 373.374 324.416 373 323.5C372.667 320.5 372.333 317.5 372 314.5C371.333 279.167 371.333 243.833 372 208.5C373.167 207.333 374.333 206.167 375.5 205C382.881 202.836 390.214 201.002 397.5 199.5ZM345.5 208.5C348.777 208.216 351.943 208.549 355 209.5C356.411 231.15 356.744 252.817 356 274.5C353.649 277.205 351.816 280.205 350.5 283.5C351.409 285.814 353.076 287.48 355.5 288.5C356.862 302.191 356.695 315.858 355 329.5C351.38 331.183 347.546 331.85 343.5 331.5C342.577 318.53 342.244 305.53 342.5 292.5C338.02 292.268 333.687 292.935 329.5 294.5C328.845 307.866 327.845 321.199 326.5 334.5C322.972 335.921 319.306 336.588 315.5 336.5C314.535 295.85 314.201 255.184 314.5 214.5C325.003 212.732 335.336 210.732 345.5 208.5ZM291.5 217.5C293.833 217.5 296.167 217.5 298.5 217.5C298.666 221.514 298.499 225.514 298 229.5C293.699 231.188 289.199 232.188 284.5 232.5C284.637 269.173 284.304 305.839 283.5 342.5C279.548 343.272 275.548 343.605 271.5 343.5C270.711 307.506 270.378 271.506 270.5 235.5C266.192 236.368 261.859 236.534 257.5 236C256.167 232.333 256.167 228.667 257.5 225C268.935 222.379 280.268 219.879 291.5 217.5ZM229.5 228.5C232.85 228.335 236.183 228.502 239.5 229C240.191 230.067 240.691 231.234 241 232.5C241.667 253.167 241.667 273.833 241 294.5C236.683 296.148 232.183 296.814 227.5 296.5C227.667 280.83 227.5 265.163 227 249.5C226.814 247.1 226.314 244.766 225.5 242.5C221.138 243.297 216.972 244.631 213 246.5C212.304 277.84 212.47 309.174 213.5 340.5C217.857 340.414 222.19 340.08 226.5 339.5C226.483 330.232 227.15 321.065 228.5 312C232.673 311.021 236.839 310.188 241 309.5C241.941 322.237 241.607 334.904 240 347.5C238.2 349.317 236.034 350.484 233.5 351C223.82 352.769 214.153 354.603 204.5 356.5C202.399 356.368 200.899 355.368 200 353.5C198.117 315.164 198.117 276.831 200 238.5C200.249 237.376 200.749 236.376 201.5 235.5C210.682 232.308 220.015 229.975 229.5 228.5ZM176.5 237.5C178.833 237.5 181.167 237.5 183.5 237.5C183.665 241.182 183.499 244.848 183 248.5C182.5 249 182 249.5 181.5 250C172.896 251.919 164.229 253.419 155.5 254.5C155.333 273.17 155.5 291.836 156 310.5C160.339 308.978 164.839 308.311 169.5 308.5C169.666 312.514 169.499 316.514 169 320.5C164.849 321.444 160.682 322.444 156.5 323.5C155.502 332.475 155.168 341.475 155.5 350.5C164.484 349.223 173.484 348.39 182.5 348C183.622 351.409 183.789 354.909 183 358.5C169.802 362.283 156.302 364.617 142.5 365.5C141.758 324.838 141.424 284.171 141.5 243.5C153.347 241.804 165.014 239.804 176.5 237.5ZM87.5 252.5C90.8333 252.5 94.1667 252.5 97.5 252.5C97.3675 288.506 97.7009 324.506 98.5 360.5C107.528 359.326 116.528 357.993 125.5 356.5C125.797 360.767 125.464 364.934 124.5 369C111.265 372.039 97.9314 374.539 84.5 376.5C84.3333 341.498 84.5 306.498 85 271.5C84.935 264.889 85.7683 258.556 87.5 252.5ZM62.5 256.5C64.4672 256.261 66.3005 256.594 68 257.5C68.4988 261.486 68.6655 265.486 68.5 269.5C59.1667 271.167 49.8333 272.833 40.5 274.5C41.2883 292.489 41.6217 310.489 41.5 328.5C45.7675 328.797 49.9341 328.464 54 327.5C54.499 331.821 54.6657 336.154 54.5 340.5C49.9071 341.185 45.4071 342.185 41 343.5C40.5002 352.494 40.3336 361.494 40.5 370.5C49.2055 369.382 57.8722 368.049 66.5 366.5C67.086 366.709 67.586 367.043 68 367.5C71.0379 376.453 67.8712 380.953 58.5 381C47.9284 383.262 37.2617 384.762 26.5 385.5C26.5 344.833 26.5 304.167 26.5 263.5C38.7456 261.796 50.7456 259.462 62.5 256.5Z" fill="#D9532B"/>
<path opacity="0.94" fill-rule="evenodd" clip-rule="evenodd" d="M663.5 127.5C681.035 126.352 695.201 132.685 706 146.5C715.43 158.855 722.93 172.355 728.5 187C742.1 185.682 755.767 185.349 769.5 186C809.829 192.811 823.329 215.644 810 254.5C803.822 266.873 796.655 278.54 788.5 289.5C793.434 297.61 798.6 305.61 804 313.5C813.371 328.307 816.704 344.307 814 361.5C808.184 377.977 796.684 388.144 779.5 392C762.189 393.797 744.856 393.964 727.5 392.5C721.526 410.619 711.86 426.453 698.5 440C682.346 453.325 665.012 454.991 646.5 445C637.583 438.085 630.083 429.918 624 420.5C619.356 411.379 614.856 402.213 610.5 393C595.52 393.521 580.52 393.521 565.5 393C527.4 384.774 515.234 362.274 529 325.5C535.427 312.966 542.594 300.966 550.5 289.5C540.025 276.227 531.859 261.56 526 245.5C518.655 215.884 529.489 196.717 558.5 188C574.972 184.847 591.472 184.681 608 187.5C608.873 187.265 609.707 186.931 610.5 186.5C616.873 171.416 625.04 157.416 635 144.5C642.819 135.847 652.319 130.181 663.5 127.5ZM665.5 144.5C661.683 145.84 658.017 147.674 654.5 150C642.729 161.442 633.729 174.775 627.5 190C641.357 195.453 655.357 200.62 669.5 205.5C683.019 201.161 696.352 196.327 709.5 191C709.957 190.586 710.291 190.086 710.5 189.5C706.284 178.729 700.784 168.729 694 159.5C686.881 149.858 677.381 144.858 665.5 144.5ZM571.5 202.5C581.853 202.55 592.186 203.05 602.5 204C603.578 204.674 604.245 205.674 604.5 207C601.414 220.503 598.58 234.003 596 247.5C585.282 257.222 574.282 266.555 563 275.5C552.591 264.028 545.258 250.695 541 235.5C538.843 222.313 543.676 212.813 555.5 207C560.783 204.85 566.116 203.35 571.5 202.5ZM742.5 202.5C752.849 202.626 763.182 203.126 773.5 204C796.87 210.576 803.703 225.076 794 247.5C789.559 258.071 783.392 267.404 775.5 275.5C766.688 268.522 758.021 261.355 749.5 254C746.238 251.408 743.738 248.241 742 244.5C739.447 232.018 736.947 219.518 734.5 207C734.585 205.893 734.919 204.893 735.5 204C738.036 203.814 740.369 203.314 742.5 202.5ZM622.5 208.5C630.865 209.9 638.865 212.4 646.5 216C636.833 221.833 627.167 227.667 617.5 233.5C617.399 224.889 619.066 216.556 622.5 208.5ZM711.5 208.5C713.467 208.261 715.301 208.594 717 209.5C719.934 216.984 721.101 224.651 720.5 232.5C711.002 227.252 701.669 221.752 692.5 216C698.904 213.372 705.238 210.872 711.5 208.5ZM668.5 225.5C686.658 232.578 703.658 241.745 719.5 253C721.333 254.833 723.167 256.667 725 258.5C726.145 269.073 726.645 279.74 726.5 290.5C726.645 301.26 726.145 311.927 725 322.5C707.524 334.825 689.024 345.492 669.5 354.5C650.394 345.449 632.061 335.116 614.5 323.5C613.749 322.624 613.249 321.624 613 320.5C610.744 299.093 611.078 277.76 614 256.5C631.399 244.72 649.566 234.387 668.5 225.5ZM744.5 272.5C751.305 277.472 757.305 283.305 762.5 290C757.346 296.488 751.512 302.321 745 307.5C744.5 295.838 744.333 284.171 744.5 272.5ZM592.5 273.5C593.828 278.288 594.495 283.454 594.5 289C594.623 294.939 594.123 300.772 593 306.5C586.991 301.323 581.158 295.989 575.5 290.5C580.215 283.785 585.882 278.118 592.5 273.5ZM563.5 303.5C574.209 312.944 585.042 322.277 596 331.5C598.636 345.179 601.469 358.846 604.5 372.5C604.392 373.442 604.059 374.275 603.5 375C589.865 376.916 576.198 376.916 562.5 375C542.996 369.45 536.496 356.95 543 337.5C548.008 325.008 554.842 313.675 563.5 303.5ZM774.5 303.5C783.877 313.213 791.044 324.546 796 337.5C802.201 359.909 793.701 372.743 770.5 376C758.787 376.812 747.12 376.645 735.5 375.5C735.167 374.5 734.833 373.5 734.5 372.5C737.449 359.253 739.949 345.919 742 332.5C753.377 323.403 764.21 313.736 774.5 303.5ZM616.5 346.5C626.606 351.722 636.606 357.222 646.5 363C639.092 366.525 631.425 369.358 623.5 371.5C621.806 369.446 620.639 367.112 620 364.5C618.512 358.55 617.345 352.55 616.5 346.5ZM720.5 346.5C721.586 346.62 722.253 347.287 722.5 348.5C721.065 356.187 719.065 363.687 716.5 371C708.146 369.549 700.146 366.882 692.5 363C702.061 357.726 711.394 352.226 720.5 346.5ZM668.5 373.5C681.225 378.687 694.225 383.187 707.5 387C709.18 387.347 710.18 388.347 710.5 390C704.758 406.499 695.091 420.166 681.5 431C674.022 435.261 666.355 435.595 658.5 432C644.142 421.452 634.142 407.619 628.5 390.5C628.529 388.971 629.196 387.804 630.5 387C643.584 383.363 656.251 378.863 668.5 373.5Z" fill="#D9532B"/>
<path opacity="0.956" fill-rule="evenodd" clip-rule="evenodd" d="M125.5 145.5C127.21 154.645 128.21 164.145 128.5 174C127.845 184.179 127.178 194.346 126.5 204.5C85.6317 212.256 44.6317 219.256 3.5 225.5C4.54496 222.615 6.54496 220.448 9.5 219C48.4001 194.725 87.0668 170.225 125.5 145.5Z" fill="#D9532B"/>
<path opacity="0.952" fill-rule="evenodd" clip-rule="evenodd" d="M995.5 145.5C996.496 145.414 997.329 145.748 998 146.5C998.833 165.842 998.666 185.175 997.5 204.5C957.2 211.606 916.867 218.606 876.5 225.5C875.5 225.167 874.5 224.833 873.5 224.5C875.126 223.01 876.792 221.51 878.5 220C917.903 195.642 956.903 170.808 995.5 145.5Z" fill="#D9532B"/>
<path opacity="0.954" fill-rule="evenodd" clip-rule="evenodd" d="M1367.5 155.5C1367.5 215.167 1367.5 274.833 1367.5 334.5C1211.81 361.059 1056.15 387.726 900.5 414.5C903.476 424.128 907.309 433.461 912 442.5C912.991 444.447 913.325 446.447 913 448.5C908.271 457.459 902.438 465.626 895.5 473C883.855 471.813 872.188 470.813 860.5 470C855.738 474.089 851.738 478.756 848.5 484C851.076 494.364 852.243 504.864 852 515.5C845.794 521.698 838.961 527.198 831.5 532C830.127 532.875 828.627 533.375 827 533.5C816.667 529.167 806.333 524.833 796 520.5C791.002 522.248 786.168 524.415 781.5 527C779.314 538.615 776.648 550.115 773.5 561.5C763.563 566.095 753.229 568.928 742.5 570C734.5 562.667 726.5 555.333 718.5 548C713.476 548.113 708.476 548.78 703.5 550C701.641 551.558 700.141 553.391 699 555.5C694.488 563.86 689.988 572.194 685.5 580.5C675.167 580.5 664.833 580.5 654.5 580.5C653.828 579.733 652.995 579.066 652 578.5C647.131 568.591 641.631 559.091 635.5 550C630.48 549.464 625.646 548.297 621 546.5C612.864 553.635 605.03 561.135 597.5 569C595.966 569.923 594.299 570.423 592.5 570.5C583.301 568.1 574.301 565.1 565.5 561.5C562.469 550.999 559.969 540.333 558 529.5C553.212 524.347 547.378 521.513 540.5 521C531.833 525 523.167 529 514.5 533C511.581 533.552 508.914 532.885 506.5 531C499.218 526.441 492.385 521.274 486 515.5C487.326 504.539 488.326 493.539 489 482.5C486.252 477.748 482.752 473.581 478.5 470C466.529 471.043 454.529 471.709 442.5 472C435.77 464.537 429.77 456.537 424.5 448C427.22 441.225 430.22 434.558 433.5 428C430.456 426.928 427.29 426.428 424 426.5C407.499 427.857 390.999 429.191 374.5 430.5C373.5 430.167 372.5 429.833 371.5 429.5C396.592 412.537 422.092 396.203 448 380.5C459.074 402.993 472.408 423.993 488 443.5C553.613 515.145 634.113 540.645 729.5 520C787.58 503.551 833.58 470.551 867.5 421C865.5 420.333 863.5 420.333 861.5 421C795.542 506.102 709.876 536.435 604.5 512C533.573 489.739 483.573 444.406 454.5 376C458.539 372.981 462.872 370.481 467.5 368.5C494.089 428.588 538.089 470.421 599.5 494C690.483 520.3 768.316 499.133 833 430.5C835 427.833 837 425.167 839 422.5C839.169 363.596 839.669 304.763 840.5 246C1016.02 214.97 1191.68 184.803 1367.5 155.5ZM1335.5 187.5C1337.71 188.023 1339.21 189.356 1340 191.5C1340.67 215.5 1340.67 239.5 1340 263.5C1339.59 266.494 1338.09 268.661 1335.5 270C1327.79 271.346 1320.12 272.846 1312.5 274.5C1311.74 288.153 1311.41 301.82 1311.5 315.5C1307.55 316.272 1303.55 316.605 1299.5 316.5C1299.5 275.833 1299.5 235.167 1299.5 194.5C1311.77 192.912 1323.77 190.579 1335.5 187.5ZM1267.5 199.5C1272.43 199.197 1277.26 199.531 1282 200.5C1283.62 239.14 1283.95 277.807 1283 316.5C1280.33 319.84 1276.83 321.674 1272.5 322C1262.29 324.339 1251.96 325.506 1241.5 325.5C1241.33 286.499 1241.5 247.499 1242 208.5C1242.31 207.234 1242.81 206.067 1243.5 205C1251.61 203.046 1259.61 201.213 1267.5 199.5ZM1219.5 207.5C1221.17 207.5 1222.83 207.5 1224.5 207.5C1225.77 248.162 1225.77 288.828 1224.5 329.5C1220.72 330.822 1216.89 331.822 1213 332.5C1211.78 318.861 1211.28 305.194 1211.5 291.5C1207.86 292.08 1204.19 292.58 1200.5 293C1199.67 293.833 1198.83 294.667 1198 295.5C1197.96 308.595 1197.3 321.595 1196 334.5C1192.12 336.57 1188.12 336.903 1184 335.5C1183.33 296.167 1183.33 256.833 1184 217.5C1184.32 215.939 1185.15 214.772 1186.5 214C1189.82 213.502 1193.15 213.335 1196.5 213.5C1196.87 235.499 1197.21 257.499 1197.5 279.5C1202.17 279.167 1206.83 278.833 1211.5 278.5C1211.22 257.152 1211.56 235.819 1212.5 214.5C1212.83 212.833 1213.17 211.167 1213.5 209.5C1215.66 208.95 1217.66 208.283 1219.5 207.5ZM1156.5 218.5C1159.52 218.335 1162.52 218.502 1165.5 219C1166 219.5 1166.5 220 1167 220.5C1168.95 237.164 1168.95 253.831 1167 270.5C1163 272.085 1158.83 273.085 1154.5 273.5C1154.67 260.829 1154.5 248.162 1154 235.5C1152.82 234.316 1151.32 233.649 1149.5 233.5C1146.51 233.966 1143.51 234.299 1140.5 234.5C1140.09 252.86 1140.09 271.193 1140.5 289.5C1147.74 289.087 1154.9 288.087 1162 286.5C1163.81 286.493 1165.31 287.16 1166.5 288.5C1169 304.446 1169.16 320.446 1167 336.5C1166.5 338.333 1165.33 339.5 1163.5 340C1151.68 343.193 1139.68 344.86 1127.5 345C1126.77 343.601 1126.27 342.101 1126 340.5C1125.33 334.5 1125.33 328.5 1126 322.5C1126.37 321.584 1126.87 320.75 1127.5 320C1131.12 318.894 1134.79 318.561 1138.5 319C1139.98 322.312 1140.81 325.812 1141 329.5C1153.21 332.282 1157.71 327.448 1154.5 315C1154.49 310.585 1154.15 306.252 1153.5 302C1146.48 302.366 1139.48 303.2 1132.5 304.5C1130.83 304.333 1129.17 304.167 1127.5 304C1126.87 303.25 1126.37 302.416 1126 301.5C1125.33 276.833 1125.33 252.167 1126 227.5C1128.47 225.348 1131.3 223.848 1134.5 223C1141.99 221.59 1149.32 220.09 1156.5 218.5ZM1101.5 227.5C1104.5 227.5 1107.5 227.5 1110.5 227.5C1110.67 249.836 1110.5 272.169 1110 294.5C1107.76 297.074 1105.92 299.908 1104.5 303C1105.65 305.487 1107.49 307.321 1110 308.5C1110.67 321.5 1110.67 334.5 1110 347.5C1109.63 348.416 1109.13 349.25 1108.5 350C1104.56 351.015 1100.56 351.515 1096.5 351.5C1096.71 338.139 1096.21 324.806 1095 311.5C1090.89 312.347 1086.73 313.013 1082.5 313.5C1081.74 327.153 1081.41 340.82 1081.5 354.5C1077.19 355.275 1072.85 355.941 1068.5 356.5C1068.42 316.494 1068.26 276.494 1068 236.5C1068.5 235.333 1069.33 234.5 1070.5 234C1074.11 233.064 1077.78 232.564 1081.5 232.5C1081.11 254.53 1081.61 276.53 1083 298.5C1086.8 299.515 1090.63 299.349 1094.5 298C1096.32 276.062 1097.15 253.895 1097 231.5C1097.91 229.391 1099.41 228.058 1101.5 227.5ZM1044.5 237.5C1051.25 236.748 1054.08 239.748 1053 246.5C1053.67 265.833 1053.67 285.167 1053 304.5C1045.8 309.591 1045.8 314.591 1053 319.5C1053.67 332.167 1053.67 344.833 1053 357.5C1048.91 360.023 1044.41 361.356 1039.5 361.5C1039.5 348.167 1039.5 334.833 1039.5 321.5C1034.86 321.472 1030.36 322.139 1026 323.5C1024.74 336.444 1024.08 349.444 1024 362.5C1023.5 363.667 1022.67 364.5 1021.5 365C1018.15 365.455 1014.81 365.955 1011.5 366.5C1011.33 325.832 1011.5 285.165 1012 244.5C1022.82 241.783 1033.66 239.449 1044.5 237.5ZM985.5 247.5C992.683 246.333 995.85 249.333 995 256.5C995.955 293.529 995.622 330.529 994 367.5C990.361 369.831 986.361 371.164 982 371.5C973.569 373.49 965.069 374.656 956.5 375C956 374.5 955.5 374 955 373.5C953.016 334.168 953.016 294.835 955 255.5C956.171 254.107 957.671 253.273 959.5 253C968.286 251.078 976.952 249.244 985.5 247.5ZM933.5 256.5C934.5 256.5 935.5 256.5 936.5 256.5C937.561 295.493 937.728 334.493 937 373.5C933.205 378.815 928.038 381.648 921.5 382C915.636 383.507 909.803 383.674 904 382.5C894.353 387.08 884.186 389.247 873.5 389C871.391 387.859 869.558 386.359 868 384.5C867.179 346.477 867.346 308.477 868.5 270.5C868.818 269.353 869.484 268.519 870.5 268C874.041 266.745 877.541 266.578 881 267.5C882.085 303.158 882.752 338.824 883 374.5C887.141 375.306 891.141 374.64 895 372.5C895.186 337.151 895.686 301.817 896.5 266.5C896.709 265.006 897.376 263.839 898.5 263C902.114 262.064 905.78 261.564 909.5 261.5C910.191 297.495 910.691 333.495 911 369.5C911.725 370.059 912.558 370.392 913.5 370.5C917.13 369.574 920.797 368.907 924.5 368.5C924.5 331.833 924.5 295.167 924.5 258.5C927.727 258.324 930.727 257.657 933.5 256.5Z" fill="#D9532B"/>
<path opacity="0.898" fill-rule="evenodd" clip-rule="evenodd" d="M1321.5 203.5C1324.56 204.157 1326.06 206.157 1326 209.5C1326.5 225.83 1326.67 242.163 1326.5 258.5C1322.8 258.907 1319.13 259.574 1315.5 260.5C1314.56 260.392 1313.72 260.059 1313 259.5C1311.34 241.496 1311.51 223.496 1313.5 205.5C1316.31 204.92 1318.98 204.254 1321.5 203.5Z" fill="#D9532B"/>
<path opacity="0.929" fill-rule="evenodd" clip-rule="evenodd" d="M1261.5 213.5C1263.83 213.5 1266.17 213.5 1268.5 213.5C1268.5 245.5 1268.5 277.5 1268.5 309.5C1264.21 310.295 1259.88 310.628 1255.5 310.5C1254.39 279.181 1254.22 247.848 1255 216.5C1257.17 215.269 1259.33 214.269 1261.5 213.5Z" fill="#D9532B"/>
<path opacity="0.921" fill-rule="evenodd" clip-rule="evenodd" d="M387.5 214.5C391.833 214.5 396.167 214.5 400.5 214.5C400.667 245.835 400.5 277.168 400 308.5C395.342 310.191 390.509 311.191 385.5 311.5C384.852 278.944 385.519 246.61 387.5 214.5Z" fill="#D9532B"/>
<path opacity="0.919" fill-rule="evenodd" clip-rule="evenodd" d="M338.5 222.5C340.776 222.756 341.943 224.09 342 226.5C342.746 243.851 342.579 261.184 341.5 278.5C337.265 279.424 333.099 279.424 329 278.5C328.5 260.503 328.333 242.503 328.5 224.5C331.187 224.664 333.854 224.497 336.5 224C337.416 223.722 338.082 223.222 338.5 222.5Z" fill="#D9532B"/>
<path opacity="0.894" fill-rule="evenodd" clip-rule="evenodd" d="M1028.5 253.5C1031.83 253.5 1035.17 253.5 1038.5 253.5C1039.22 271.491 1039.55 289.491 1039.5 307.5C1034.74 308.071 1030.08 309.071 1025.5 310.5C1024.5 291.845 1024.17 273.179 1024.5 254.5C1026.1 254.768 1027.43 254.434 1028.5 253.5Z" fill="#D9532B"/>
<path opacity="0.963" fill-rule="evenodd" clip-rule="evenodd" d="M664.5 257.5C689.835 257.666 702.001 270.333 701 295.5C695.749 315.893 682.582 324.393 661.5 321C649.035 317.869 641.202 310.035 638 297.5C635.145 276.168 643.978 262.835 664.5 257.5Z" fill="#D9532B"/>
<path opacity="0.944" fill-rule="evenodd" clip-rule="evenodd" d="M970.5 263.5C974.167 263.5 977.833 263.5 981.5 263.5C981.667 294.835 981.5 326.168 981 357.5C976.838 359.615 972.338 360.615 967.5 360.5C967.333 329.832 967.5 299.165 968 268.5C968.335 266.497 969.168 264.83 970.5 263.5Z" fill="#D9532B"/>
<path opacity="0.947" fill-rule="evenodd" clip-rule="evenodd" d="M1360.5 348.5C1364.53 348.281 1365.19 349.448 1362.5 352C1321.63 378.364 1280.63 404.531 1239.5 430.5C1238.31 410.165 1238.31 389.832 1239.5 369.5C1280.05 363.021 1320.38 356.021 1360.5 348.5Z" fill="#D9532B"/>
<path opacity="0.952" fill-rule="evenodd" clip-rule="evenodd" d="M456.5 354.5C459.247 354.187 461.914 354.52 464.5 355.5C464.023 356.478 463.357 357.311 462.5 358C422.17 384.189 381.503 409.689 340.5 434.5C340.5 414.5 340.5 394.5 340.5 374.5C379.401 368.45 418.068 361.783 456.5 354.5Z" fill="#D9532B"/>
</g>
<defs>
<clipPath id="clip0_2_264">
<rect width="1375" height="586" fill="white"/>
</clipPath>
</defs>
</svg>
