<svg xmlns="http://www.w3.org/2000/svg" xmlns:xlink="http://www.w3.org/1999/xlink" width="500" zoomAndPan="magnify" viewBox="0 0 375 374.999991" height="500" preserveAspectRatio="xMidYMid meet" version="1.0"><defs><g/><clipPath id="74118c5ca3"><path d="M 187.5 99.273438 L 286.390625 99.273438 L 286.390625 296.15625 L 187.5 296.15625 Z M 187.5 99.273438 " clip-rule="nonzero"/></clipPath></defs><rect x="-37.5" width="450" fill="#ffffff" y="-37.499999" height="449.999989" fill-opacity="1"/><rect x="-37.5" width="450" fill="#f8f7f2" y="-37.499999" height="449.999989" fill-opacity="1"/><g clip-path="url(#74118c5ca3)"><path fill="#1c2120" d="M 187.5 99.273438 L 286.390625 99.273438 L 286.390625 296.15625 L 187.5 296.15625 Z M 187.5 99.273438 " fill-opacity="1" fill-rule="nonzero"/></g><g fill="#1c2120" fill-opacity="1"><g transform="translate(99.400186, 191.280148)"><g><path d="M 4.0625 -3.71875 C 3.5 -3.664062 2.882812 -4.054688 2.21875 -4.890625 C 1.550781 -5.734375 0.960938 -7.175781 0.453125 -9.21875 C -0.046875 -11.269531 -0.222656 -14.109375 -0.078125 -17.734375 C -0.078125 -18.097656 -0.078125 -18.5625 -0.078125 -19.125 C -0.078125 -20.507812 -0.015625 -22.144531 0.109375 -24.03125 C 0.234375 -25.914062 0.503906 -27.601562 0.921875 -29.09375 C 1.335938 -30.582031 1.976562 -31.484375 2.84375 -31.796875 C 5.4375 -32.492188 6.84375 -31.570312 7.0625 -29.03125 C 7.0625 -28.25 7.035156 -27.453125 6.984375 -26.640625 C 6.929688 -26.285156 6.90625 -25.894531 6.90625 -25.46875 C 6.84375 -24.300781 6.785156 -23.160156 6.734375 -22.046875 C 6.734375 -21.066406 6.691406 -20.117188 6.609375 -19.203125 C 6.609375 -18.585938 6.609375 -17.695312 6.609375 -16.53125 C 6.691406 -14.882812 6.710938 -13.085938 6.671875 -11.140625 C 6.628906 -9.203125 6.410156 -7.515625 6.015625 -6.078125 C 5.628906 -4.648438 4.976562 -3.863281 4.0625 -3.71875 Z M 6.53125 -40.453125 C 6.21875 -40.140625 5.789062 -39.941406 5.25 -39.859375 C 4.707031 -39.773438 4.28125 -39.816406 3.96875 -39.984375 C 3.664062 -40.296875 3.460938 -40.640625 3.359375 -41.015625 C 3.265625 -41.390625 3.21875 -41.84375 3.21875 -42.375 C 3.28125 -42.507812 3.3125 -42.632812 3.3125 -42.75 C 3.363281 -43.25 3.488281 -43.738281 3.6875 -44.21875 C 4.238281 -45.632812 5.363281 -46.25 7.0625 -46.0625 C 7.675781 -46 8.132812 -45.75 8.4375 -45.3125 C 8.75 -44.882812 8.851562 -44.40625 8.75 -43.875 C 8.320312 -42.570312 7.582031 -41.429688 6.53125 -40.453125 Z M 6.53125 -40.453125 "/></g></g></g><g fill="#1c2120" fill-opacity="1"><g transform="translate(110.777444, 191.280148)"><g><path d="M 13.34375 -105.546875 C 16.21875 -109.023438 19.109375 -110.976562 22.015625 -111.40625 C 24.929688 -111.84375 27.640625 -111.050781 30.140625 -109.03125 C 32.640625 -107.007812 34.632812 -104.09375 36.125 -100.28125 C 37.613281 -96.476562 38.359375 -92.109375 38.359375 -87.171875 C 38.359375 -82.242188 37.382812 -77.070312 35.4375 -71.65625 C 31.945312 -62.707031 27.441406 -53.921875 21.921875 -45.296875 C 16.398438 -36.679688 11.1875 -29.695312 6.28125 -24.34375 C 6.195312 -24.175781 6.15625 -24.015625 6.15625 -23.859375 C 6.15625 -23.710938 6.15625 -23.578125 6.15625 -23.453125 C 6.15625 -23.328125 6.195312 -23.289062 6.28125 -23.34375 C 10.007812 -27.695312 13.421875 -30.648438 16.515625 -32.203125 C 19.617188 -33.765625 22.039062 -34.257812 23.78125 -33.6875 C 25.519531 -33.125 26.285156 -31.84375 26.078125 -29.84375 C 25.867188 -27.851562 24.359375 -25.503906 21.546875 -22.796875 C 17.804688 -19.535156 14.304688 -17.597656 11.046875 -16.984375 C 12.941406 -14.273438 14.972656 -12.078125 17.140625 -10.390625 C 19.316406 -8.703125 21.398438 -7.441406 23.390625 -6.609375 C 24.109375 -6.304688 24.75 -6.023438 25.3125 -5.765625 C 26.539062 -5.328125 27.363281 -4.84375 27.78125 -4.3125 C 27.914062 -4.113281 28.023438 -3.875 28.109375 -3.59375 C 28.191406 -3.3125 28.097656 -2.976562 27.828125 -2.59375 C 27.566406 -2.207031 26.976562 -1.757812 26.0625 -1.25 C 23.914062 -0.21875 21.765625 -0.253906 19.609375 -1.359375 C 17.460938 -2.460938 15.484375 -4.085938 13.671875 -6.234375 C 11.859375 -8.378906 10.378906 -10.414062 9.234375 -12.34375 C 8.097656 -14.269531 7.445312 -15.507812 7.28125 -16.0625 C 7.082031 -15.757812 6.96875 -15.054688 6.9375 -13.953125 C 6.914062 -12.847656 6.90625 -11.554688 6.90625 -10.078125 C 6.90625 -8.242188 6.847656 -6.472656 6.734375 -4.765625 C 6.734375 -4.460938 6.734375 -4.1875 6.734375 -3.9375 C 6.734375 -2.875 6.578125 -2.160156 6.265625 -1.796875 C 5.960938 -1.429688 5.15625 -1.15625 3.84375 -0.96875 C 2.875 -0.738281 2.003906 -0.726562 1.234375 -0.9375 C 0.460938 -1.144531 0.0507812 -1.765625 0 -2.796875 C 0 -4.640625 0 -6.484375 0 -8.328125 C 0.0507812 -15.628906 0.148438 -22.960938 0.296875 -30.328125 C 0.347656 -35.597656 0.707031 -44.285156 1.375 -56.390625 C 1.4375 -58.285156 1.65625 -61.253906 2.03125 -65.296875 C 2.40625 -69.335938 3.015625 -73.875 3.859375 -78.90625 C 4.710938 -83.945312 5.90625 -88.84375 7.4375 -93.59375 C 8.976562 -98.351562 10.945312 -102.335938 13.34375 -105.546875 Z M 17.1875 -24.8125 C 20.09375 -28.125 21.492188 -30.132812 21.390625 -30.84375 C 21.296875 -31.5625 20.363281 -31.394531 18.59375 -30.34375 C 16.820312 -29.300781 14.8125 -27.8125 12.5625 -25.875 C 10.320312 -23.9375 8.488281 -21.960938 7.0625 -19.953125 C 7.320312 -19.867188 8.097656 -20.039062 9.390625 -20.46875 C 10.691406 -20.90625 12.085938 -21.503906 13.578125 -22.265625 C 15.066406 -23.035156 16.269531 -23.882812 17.1875 -24.8125 Z M 33.5 -81.703125 C 33.675781 -83.234375 33.71875 -85.34375 33.625 -88.03125 C 33.539062 -90.726562 33.234375 -93.566406 32.703125 -96.546875 C 32.179688 -99.535156 31.382812 -102.144531 30.3125 -104.375 C 29.238281 -106.601562 27.847656 -107.992188 26.140625 -108.546875 C 23.992188 -109.222656 21.707031 -107.921875 19.28125 -104.640625 C 16.851562 -101.367188 14.578125 -95.679688 12.453125 -87.578125 C 10.335938 -79.472656 8.671875 -68.519531 7.453125 -54.71875 C 6.972656 -49.5625 6.59375 -44.5 6.3125 -39.53125 C 6.03125 -34.5625 5.820312 -30.695312 5.6875 -27.9375 C 14.363281 -40.632812 20.9375 -51.320312 25.40625 -60 C 29.882812 -68.6875 32.582031 -75.921875 33.5 -81.703125 Z M 33.5 -81.703125 "/></g></g></g><g fill="#1c2120" fill-opacity="1"><g transform="translate(142.775981, 191.280148)"><g><path d="M 4.0625 -3.71875 C 3.5 -3.664062 2.882812 -4.054688 2.21875 -4.890625 C 1.550781 -5.734375 0.960938 -7.175781 0.453125 -9.21875 C -0.046875 -11.269531 -0.222656 -14.109375 -0.078125 -17.734375 C -0.078125 -18.097656 -0.078125 -18.5625 -0.078125 -19.125 C -0.078125 -20.507812 -0.015625 -22.144531 0.109375 -24.03125 C 0.234375 -25.914062 0.503906 -27.601562 0.921875 -29.09375 C 1.335938 -30.582031 1.976562 -31.484375 2.84375 -31.796875 C 5.4375 -32.492188 6.84375 -31.570312 7.0625 -29.03125 C 7.0625 -28.25 7.035156 -27.453125 6.984375 -26.640625 C 6.929688 -26.285156 6.90625 -25.894531 6.90625 -25.46875 C 6.84375 -24.300781 6.785156 -23.160156 6.734375 -22.046875 C 6.734375 -21.066406 6.691406 -20.117188 6.609375 -19.203125 C 6.609375 -18.585938 6.609375 -17.695312 6.609375 -16.53125 C 6.691406 -14.882812 6.710938 -13.085938 6.671875 -11.140625 C 6.628906 -9.203125 6.410156 -7.515625 6.015625 -6.078125 C 5.628906 -4.648438 4.976562 -3.863281 4.0625 -3.71875 Z M 6.53125 -40.453125 C 6.21875 -40.140625 5.789062 -39.941406 5.25 -39.859375 C 4.707031 -39.773438 4.28125 -39.816406 3.96875 -39.984375 C 3.664062 -40.296875 3.460938 -40.640625 3.359375 -41.015625 C 3.265625 -41.390625 3.21875 -41.84375 3.21875 -42.375 C 3.28125 -42.507812 3.3125 -42.632812 3.3125 -42.75 C 3.363281 -43.25 3.488281 -43.738281 3.6875 -44.21875 C 4.238281 -45.632812 5.363281 -46.25 7.0625 -46.0625 C 7.675781 -46 8.132812 -45.75 8.4375 -45.3125 C 8.75 -44.882812 8.851562 -44.40625 8.75 -43.875 C 8.320312 -42.570312 7.582031 -41.429688 6.53125 -40.453125 Z M 6.53125 -40.453125 "/></g></g></g><g fill="#1c2120" fill-opacity="1"><g transform="translate(154.153238, 191.280148)"><g><path d="M 28.734375 -28.703125 C 29.410156 -28.753906 30.003906 -28.726562 30.515625 -28.625 C 31.035156 -28.53125 31.296875 -28.300781 31.296875 -27.9375 C 31.546875 -24.0625 31.453125 -19.207031 31.015625 -13.375 C 30.585938 -7.550781 29.664062 -1.253906 28.25 5.515625 C 26.84375 12.296875 24.847656 19.070312 22.265625 25.84375 C 19.691406 32.625 16.410156 38.898438 12.421875 44.671875 C 8.429688 50.441406 3.613281 55.207031 -2.03125 58.96875 C -7.675781 62.738281 -14.265625 65.03125 -21.796875 65.84375 C -27.515625 66.3125 -32.210938 65.507812 -35.890625 63.4375 C -39.566406 61.363281 -41.554688 58.101562 -41.859375 53.65625 C -42.171875 49.207031 -40.066406 43.671875 -35.546875 37.046875 C -31.035156 30.421875 -23.453125 22.769531 -12.796875 14.09375 C -7.140625 9.6875 -1.585938 5.769531 3.859375 2.34375 C 9.316406 -1.082031 13.957031 -3.941406 17.78125 -6.234375 C 18.8125 -6.847656 19.757812 -7.390625 20.625 -7.859375 C 23.269531 -9.335938 24.492188 -11.488281 24.296875 -14.3125 C 24.296875 -14.613281 24.296875 -15.046875 24.296875 -15.609375 C 24.242188 -16.410156 24.21875 -17.300781 24.21875 -18.28125 C 22.632812 -15.769531 20.394531 -13.484375 17.5 -11.421875 C 14.613281 -9.359375 11.648438 -7.882812 8.609375 -7 C 5.578125 -6.125 2.984375 -6.175781 0.828125 -7.15625 C -1.316406 -8.132812 -2.414062 -10.40625 -2.46875 -13.96875 C -2.414062 -15.8125 -1.898438 -17.5 -0.921875 -19.03125 C 1.421875 -23.132812 4.644531 -26.359375 8.75 -28.703125 C 10.28125 -29.535156 12.128906 -30.140625 14.296875 -30.515625 C 16.472656 -30.890625 18.578125 -30.859375 20.609375 -30.421875 C 22.648438 -29.992188 24.285156 -29.039062 25.515625 -27.5625 C 25.828125 -28.007812 26.265625 -28.3125 26.828125 -28.46875 C 27.398438 -28.625 27.941406 -28.703125 28.453125 -28.703125 C 28.554688 -28.703125 28.648438 -28.703125 28.734375 -28.703125 Z M 18.78125 -18.828125 C 21.34375 -21.421875 22.75 -23.414062 23 -24.8125 C 22.394531 -25.925781 21.445312 -26.597656 20.15625 -26.828125 C 18.875 -27.066406 17.554688 -27.050781 16.203125 -26.78125 C 14.859375 -26.519531 13.722656 -26.113281 12.796875 -25.5625 C 10.285156 -23.96875 8.429688 -22.035156 7.234375 -19.765625 C 6.035156 -17.492188 5.585938 -15.554688 5.890625 -13.953125 C 6.203125 -12.347656 7.40625 -11.796875 9.5 -12.296875 C 11.59375 -12.796875 14.6875 -14.972656 18.78125 -18.828125 Z M 22.296875 -0.5 C 22.296875 -0.582031 22.320312 -0.65625 22.375 -0.71875 C 22.4375 -1.070312 22.492188 -1.539062 22.546875 -2.125 C 22.597656 -2.71875 22.582031 -3.179688 22.5 -3.515625 C 22.414062 -3.847656 22.195312 -3.890625 21.84375 -3.640625 C 21.332031 -3.328125 20.800781 -2.992188 20.25 -2.640625 C 16.507812 -0.234375 11.597656 3.113281 5.515625 7.40625 C -0.554688 11.695312 -6.71875 16.535156 -12.96875 21.921875 C -14.195312 23.035156 -15.957031 24.679688 -18.25 26.859375 C -20.550781 29.035156 -22.976562 31.515625 -25.53125 34.296875 C -28.082031 37.085938 -30.351562 39.972656 -32.34375 42.953125 C -34.34375 45.941406 -35.660156 48.753906 -36.296875 51.390625 C -36.941406 54.023438 -36.53125 56.289062 -35.0625 58.1875 C -33.101562 60.476562 -30.082031 61.46875 -26 61.15625 C -21.914062 60.851562 -17.328125 59.320312 -12.234375 56.5625 C -7.140625 53.800781 -2.140625 49.828125 2.765625 44.640625 C 7.671875 39.453125 11.882812 33.082031 15.40625 25.53125 C 18.9375 17.988281 21.234375 9.3125 22.296875 -0.5 Z M 22.296875 -0.5 "/></g></g></g><g fill="#f8f7f2" fill-opacity="1"><g transform="translate(191.427524, 191.280148)"><g><path d="M 61.828125 -24.171875 C 62.328125 -24.847656 62.851562 -25.335938 63.40625 -25.640625 C 63.96875 -25.953125 64.304688 -25.953125 64.421875 -25.640625 C 64.535156 -25.335938 64.226562 -24.597656 63.5 -23.421875 C 61.851562 -20.972656 59.429688 -18.644531 56.234375 -16.4375 C 53.046875 -14.238281 49.519531 -12.359375 45.65625 -10.796875 C 41.789062 -9.234375 38.019531 -8.195312 34.34375 -7.6875 C 30.664062 -7.1875 27.550781 -7.429688 25 -8.421875 C 22.445312 -9.421875 20.863281 -11.351562 20.25 -14.21875 C 18.101562 -10.738281 15.554688 -8.015625 12.609375 -6.046875 C 9.671875 -4.078125 6.875 -3.25 4.21875 -3.5625 C 1.207031 -3.976562 -0.796875 -5.101562 -1.796875 -6.9375 C -2.804688 -8.78125 -3.140625 -10.898438 -2.796875 -13.296875 C -2.460938 -15.703125 -1.738281 -17.976562 -0.625 -20.125 C 0.207031 -21.769531 1.390625 -23.300781 2.921875 -24.71875 C 4.460938 -26.144531 6.066406 -27.25 7.734375 -28.03125 C 9.828125 -29.082031 11.925781 -29.5625 14.03125 -29.46875 C 16.132812 -29.375 18.390625 -28.6875 20.796875 -27.40625 C 20.796875 -27.40625 20.820312 -27.457031 20.875 -27.5625 C 20.875 -27.8125 20.921875 -28.101562 21.015625 -28.4375 C 21.117188 -28.78125 21.320312 -29.078125 21.625 -29.328125 C 22.039062 -29.628906 22.578125 -29.867188 23.234375 -30.046875 C 23.890625 -30.234375 24.523438 -30.269531 25.140625 -30.15625 C 26.117188 -29.96875 26.722656 -29.472656 26.953125 -28.671875 C 27.191406 -27.878906 27.234375 -27.007812 27.078125 -26.0625 C 26.929688 -25.113281 26.773438 -24.304688 26.609375 -23.640625 C 26.546875 -23.492188 26.515625 -23.367188 26.515625 -23.265625 C 25.515625 -19.210938 25.878906 -16.367188 27.609375 -14.734375 C 29.335938 -13.109375 31.835938 -12.359375 35.109375 -12.484375 C 38.390625 -12.609375 41.867188 -13.296875 45.546875 -14.546875 C 49.234375 -15.804688 52.582031 -17.304688 55.59375 -19.046875 C 58.601562 -20.796875 60.679688 -22.503906 61.828125 -24.171875 Z M 5.4375 -9 C 6.71875 -8.132812 8.097656 -8.222656 9.578125 -9.265625 C 11.054688 -10.304688 12.5 -11.8125 13.90625 -13.78125 C 15.3125 -15.75 16.472656 -17.707031 17.390625 -19.65625 C 18.316406 -21.613281 18.835938 -23.09375 18.953125 -24.09375 C 16.023438 -25.6875 13.515625 -25.972656 11.421875 -24.953125 C 9.328125 -23.929688 7.691406 -22.304688 6.515625 -20.078125 C 5.347656 -17.847656 4.671875 -15.640625 4.484375 -13.453125 C 4.304688 -11.265625 4.625 -9.78125 5.4375 -9 Z M 5.4375 -9 "/></g></g></g><g fill="#f8f7f2" fill-opacity="1"><g transform="translate(251.241782, 191.280148)"><g><path d="M 4.0625 -3.71875 C 3.5 -3.664062 2.882812 -4.054688 2.21875 -4.890625 C 1.550781 -5.734375 0.960938 -7.175781 0.453125 -9.21875 C -0.046875 -11.269531 -0.222656 -14.109375 -0.078125 -17.734375 C -0.078125 -18.097656 -0.078125 -18.5625 -0.078125 -19.125 C -0.078125 -20.507812 -0.015625 -22.144531 0.109375 -24.03125 C 0.234375 -25.914062 0.503906 -27.601562 0.921875 -29.09375 C 1.335938 -30.582031 1.976562 -31.484375 2.84375 -31.796875 C 5.4375 -32.492188 6.84375 -31.570312 7.0625 -29.03125 C 7.0625 -28.25 7.035156 -27.453125 6.984375 -26.640625 C 6.929688 -26.285156 6.90625 -25.894531 6.90625 -25.46875 C 6.84375 -24.300781 6.785156 -23.160156 6.734375 -22.046875 C 6.734375 -21.066406 6.691406 -20.117188 6.609375 -19.203125 C 6.609375 -18.585938 6.609375 -17.695312 6.609375 -16.53125 C 6.691406 -14.882812 6.710938 -13.085938 6.671875 -11.140625 C 6.628906 -9.203125 6.410156 -7.515625 6.015625 -6.078125 C 5.628906 -4.648438 4.976562 -3.863281 4.0625 -3.71875 Z M 6.53125 -40.453125 C 6.21875 -40.140625 5.789062 -39.941406 5.25 -39.859375 C 4.707031 -39.773438 4.28125 -39.816406 3.96875 -39.984375 C 3.664062 -40.296875 3.460938 -40.640625 3.359375 -41.015625 C 3.265625 -41.390625 3.21875 -41.84375 3.21875 -42.375 C 3.28125 -42.507812 3.3125 -42.632812 3.3125 -42.75 C 3.363281 -43.25 3.488281 -43.738281 3.6875 -44.21875 C 4.238281 -45.632812 5.363281 -46.25 7.0625 -46.0625 C 7.675781 -46 8.132812 -45.75 8.4375 -45.3125 C 8.75 -44.882812 8.851562 -44.40625 8.75 -43.875 C 8.320312 -42.570312 7.582031 -41.429688 6.53125 -40.453125 Z M 6.53125 -40.453125 "/></g></g></g><g fill="#f8f7f2" fill-opacity="1"><g transform="translate(187.499992, 207.783181)"><g><path d="M 4.117188 0 L 4.835938 0 C 4.789062 -0.210938 4.765625 -0.425781 4.765625 -0.980469 L 4.765625 -7.714844 L 7.597656 -7.714844 C 8.152344 -7.714844 8.375 -7.691406 8.578125 -7.65625 L 8.398438 -8.257812 L 0.554688 -8.257812 L 0.378906 -7.65625 C 0.578125 -7.691406 0.789062 -7.714844 1.34375 -7.714844 L 4.1875 -7.714844 L 4.1875 -0.980469 C 4.1875 -0.425781 4.152344 -0.210938 4.117188 0 Z M 4.117188 0 "/></g></g></g><g fill="#f8f7f2" fill-opacity="1"><g transform="translate(196.436076, 207.783181)"><g><path d="M 4.542969 0.164062 C 5.605469 0.164062 6.785156 -0.105469 7.421875 -0.519531 L 7.421875 -1.097656 C 6.832031 -0.625 5.664062 -0.320312 4.554688 -0.320312 C 2.855469 -0.320312 1.285156 -1.273438 1.285156 -2.949219 L 1.34375 -2.996094 C 2.207031 -2.570312 3.304688 -2.207031 4.542969 -2.207031 C 6.5 -2.207031 7.597656 -2.703125 7.597656 -3.988281 C 7.597656 -5.074219 6.429688 -6.0625 4.4375 -6.0625 C 2.464844 -6.0625 0.742188 -4.8125 0.742188 -2.949219 C 0.742188 -1.085938 2.40625 0.164062 4.542969 0.164062 Z M 4.519531 -2.628906 C 3.433594 -2.628906 2.242188 -2.925781 1.320312 -3.375 C 1.582031 -4.765625 3.078125 -5.582031 4.4375 -5.582031 C 6.085938 -5.582031 7.054688 -4.730469 7.054688 -3.988281 C 7.054688 -2.914062 5.886719 -2.628906 4.519531 -2.628906 Z M 4.519531 -2.628906 "/></g></g></g><g fill="#f8f7f2" fill-opacity="1"><g transform="translate(204.723761, 207.783181)"><g><path d="M 4.507812 0.164062 C 5.34375 0.164062 6.335938 -0.0703125 6.925781 -0.4375 L 6.890625 -1.015625 C 6.324219 -0.578125 5.402344 -0.332031 4.507812 -0.332031 C 2.785156 -0.332031 1.273438 -1.320312 1.273438 -2.949219 C 1.273438 -4.589844 2.796875 -5.570312 4.519531 -5.570312 C 5.261719 -5.570312 6.171875 -5.332031 6.6875 -4.992188 L 6.6875 -5.554688 C 6.148438 -5.839844 5.238281 -6.0625 4.519531 -6.0625 C 2.417969 -6.0625 0.742188 -4.8125 0.742188 -2.949219 C 0.742188 -1.085938 2.40625 0.164062 4.507812 0.164062 Z M 4.507812 0.164062 "/></g></g></g><g fill="#f8f7f2" fill-opacity="1"><g transform="translate(212.174425, 207.783181)"><g><path d="M 1.144531 0 L 1.816406 0 C 1.769531 -0.199219 1.746094 -0.425781 1.746094 -0.980469 L 1.746094 -2.972656 C 1.746094 -4.386719 3.03125 -5.570312 4.519531 -5.570312 C 5.945312 -5.570312 6.890625 -4.824219 6.890625 -3.363281 L 6.890625 -0.980469 C 6.890625 -0.425781 6.867188 -0.199219 6.820312 0 L 7.492188 0 C 7.445312 -0.199219 7.421875 -0.425781 7.421875 -0.980469 L 7.421875 -3.375 C 7.421875 -5.109375 6.324219 -6.0625 4.566406 -6.0625 C 3.433594 -6.0625 2.21875 -5.507812 1.828125 -4.234375 L 1.746094 -4.234375 L 1.746094 -7.277344 C 1.746094 -7.832031 1.769531 -8.058594 1.816406 -8.257812 L 1.144531 -8.257812 C 1.191406 -8.058594 1.214844 -7.832031 1.214844 -7.277344 L 1.214844 -0.980469 C 1.214844 -0.425781 1.191406 -0.199219 1.144531 0 Z M 1.144531 0 "/></g></g></g><g fill="#f8f7f2" fill-opacity="1"><g transform="translate(220.768629, 207.783181)"><g><path d="M 1.144531 0 L 1.816406 0 C 1.769531 -0.199219 1.746094 -0.425781 1.746094 -0.980469 L 1.746094 -2.972656 C 1.746094 -4.386719 3.03125 -5.570312 4.519531 -5.570312 C 5.945312 -5.570312 6.890625 -4.824219 6.890625 -3.363281 L 6.890625 -0.980469 C 6.890625 -0.425781 6.867188 -0.199219 6.820312 0 L 7.492188 0 C 7.445312 -0.199219 7.421875 -0.425781 7.421875 -0.980469 L 7.421875 -3.375 C 7.421875 -5.109375 6.324219 -6.0625 4.566406 -6.0625 C 3.433594 -6.0625 2.21875 -5.507812 1.828125 -4.234375 L 1.746094 -4.234375 L 1.746094 -4.917969 C 1.746094 -5.472656 1.769531 -5.699219 1.816406 -5.898438 L 1.144531 -5.898438 C 1.191406 -5.699219 1.214844 -5.472656 1.214844 -4.917969 L 1.214844 -0.980469 C 1.214844 -0.425781 1.191406 -0.199219 1.144531 0 Z M 1.144531 0 "/></g></g></g><g fill="#f8f7f2" fill-opacity="1"><g transform="translate(229.362832, 207.783181)"><g><path d="M 4.234375 0.164062 C 6.253906 0.164062 7.726562 -1.085938 7.726562 -2.949219 C 7.726562 -4.8125 6.253906 -6.0625 4.234375 -6.0625 C 2.207031 -6.0625 0.742188 -4.8125 0.742188 -2.949219 C 0.742188 -1.085938 2.207031 0.164062 4.234375 0.164062 Z M 4.234375 -0.332031 C 2.582031 -0.332031 1.273438 -1.320312 1.273438 -2.949219 C 1.273438 -4.589844 2.582031 -5.570312 4.234375 -5.570312 C 5.886719 -5.570312 7.183594 -4.589844 7.183594 -2.949219 C 7.183594 -1.320312 5.886719 -0.332031 4.234375 -0.332031 Z M 4.234375 -0.332031 "/></g></g></g><g fill="#f8f7f2" fill-opacity="1"><g transform="translate(237.815564, 207.783181)"><g><path d="M 1.167969 0 L 1.828125 0 C 1.792969 -0.199219 1.769531 -0.425781 1.769531 -0.980469 L 1.769531 -7.277344 C 1.769531 -7.832031 1.792969 -8.058594 1.828125 -8.257812 L 1.167969 -8.257812 C 1.203125 -8.058594 1.238281 -7.832031 1.238281 -7.277344 L 1.238281 -0.980469 C 1.238281 -0.425781 1.203125 -0.199219 1.167969 0 Z M 1.167969 0 "/></g></g></g><g fill="#f8f7f2" fill-opacity="1"><g transform="translate(240.809979, 207.783181)"><g><path d="M 4.234375 0.164062 C 6.253906 0.164062 7.726562 -1.085938 7.726562 -2.949219 C 7.726562 -4.8125 6.253906 -6.0625 4.234375 -6.0625 C 2.207031 -6.0625 0.742188 -4.8125 0.742188 -2.949219 C 0.742188 -1.085938 2.207031 0.164062 4.234375 0.164062 Z M 4.234375 -0.332031 C 2.582031 -0.332031 1.273438 -1.320312 1.273438 -2.949219 C 1.273438 -4.589844 2.582031 -5.570312 4.234375 -5.570312 C 5.886719 -5.570312 7.183594 -4.589844 7.183594 -2.949219 C 7.183594 -1.320312 5.886719 -0.332031 4.234375 -0.332031 Z M 4.234375 -0.332031 "/></g></g></g><g fill="#f8f7f2" fill-opacity="1"><g transform="translate(249.26271, 207.783181)"><g><path d="M 3.917969 2.65625 C 5.992188 2.65625 7.953125 1.769531 7.953125 -0.414062 C 7.953125 -0.789062 7.820312 -1.214844 7.574219 -1.59375 L 7.574219 -4.625 C 7.574219 -5.167969 7.597656 -5.53125 7.632812 -5.898438 L 6.925781 -5.898438 C 6.984375 -5.652344 7.03125 -5.191406 7.03125 -4.625 L 7.03125 -4.339844 L 6.9375 -4.339844 C 6.5 -5.414062 5.378906 -6.0625 4.058594 -6.0625 C 2.136719 -6.0625 0.742188 -4.824219 0.742188 -2.949219 C 0.742188 -1.085938 2.148438 0.164062 4.070312 0.164062 C 5.414062 0.164062 6.476562 -0.589844 6.9375 -1.570312 L 7.03125 -1.570312 C 7.277344 -1.167969 7.421875 -0.777344 7.421875 -0.390625 C 7.421875 1.449219 5.78125 2.148438 3.894531 2.148438 C 2.878906 2.148438 1.722656 1.886719 0.945312 1.390625 L 0.921875 1.957031 C 1.722656 2.394531 2.914062 2.65625 3.917969 2.65625 Z M 4.1875 -0.332031 C 2.511719 -0.332031 1.285156 -1.390625 1.285156 -2.949219 C 1.285156 -4.507812 2.511719 -5.570312 4.1875 -5.570312 C 5.804688 -5.570312 7.03125 -4.472656 7.03125 -2.949219 C 7.03125 -1.582031 5.804688 -0.332031 4.1875 -0.332031 Z M 4.1875 -0.332031 "/></g></g></g><g fill="#f8f7f2" fill-opacity="1"><g transform="translate(258.010161, 207.783181)"><g><path d="M 4.035156 2.65625 C 6.109375 2.65625 7.832031 1.769531 7.832031 -0.414062 C 7.832031 -0.800781 7.691406 -1.332031 7.433594 -1.746094 L 7.433594 -4.929688 C 7.433594 -5.484375 7.457031 -5.699219 7.492188 -5.898438 L 6.820312 -5.898438 C 6.867188 -5.699219 6.890625 -5.484375 6.890625 -4.929688 L 6.890625 -2.925781 C 6.890625 -1.523438 5.605469 -0.34375 4.117188 -0.34375 C 2.691406 -0.34375 1.757812 -1.074219 1.757812 -2.535156 L 1.757812 -4.929688 C 1.757812 -5.484375 1.78125 -5.699219 1.816406 -5.898438 L 1.15625 -5.898438 C 1.191406 -5.699219 1.214844 -5.484375 1.214844 -4.929688 L 1.214844 -2.523438 C 1.214844 -0.800781 2.324219 0.164062 4.082031 0.164062 C 5.203125 0.164062 6.453125 -0.390625 6.84375 -1.664062 L 6.914062 -1.664062 C 7.160156 -1.261719 7.300781 -0.777344 7.300781 -0.390625 C 7.300781 1.449219 5.898438 2.148438 4.011719 2.148438 C 2.996094 2.148438 1.839844 1.886719 1.0625 1.390625 L 1.039062 1.957031 C 1.839844 2.394531 3.03125 2.65625 4.035156 2.65625 Z M 4.035156 2.65625 "/></g></g></g></svg>